<svg version="1.1" xmlns="http://www.w3.org/2000/svg" xmlns:xlink="http://www.w3.org/1999/xlink" width="516.724px" height="261px" viewBox="0,0,256,129.29688"><g fill="#ffffff" fill-rule="nonzero" stroke="none" stroke-width="1" stroke-linecap="butt" stroke-linejoin="miter" stroke-miterlimit="10" stroke-dasharray="" stroke-dashoffset="0" font-family="none" font-weight="none" font-size="none" text-anchor="none" style="mix-blend-mode: normal"><g transform="translate(-0.00024,0.12586) scale(0.49543,0.49543)"><g><path d="M416.982,127.954c0,0 -0.146,-15.349 -0.096,-22.429c0.007,-0.985 -0.444,-1.106 -1.24,-1.104c-5.52,0.01 -11.039,-0.014 -16.559,-0.008c-2.279,0.003 -3.795,-0.874 -4.464,-3.056c-1.637,-5.339 -3.158,-10.713 -4.695,-16.082c-1.823,-6.367 -3.544,-12.764 -5.455,-19.104c-0.74,-2.456 0.925,-4.698 2.963,-5.117c5.199,-1.068 10.376,-2.243 15.565,-3.358c19.547,-4.201 39.095,-8.394 58.642,-12.592c4.565,-0.98 9.147,-1.89 13.687,-2.976c3.786,-0.906 5.642,2.898 5.102,5.586c-1.581,7.859 -4.759,15.181 -7.12,22.771c-2.358,7.581 -4.91,15.104 -7.504,22.609c-1.048,3.033 -2.368,5.98 -3.694,8.908c-0.73,1.612 -2.139,2.426 -3.954,2.426c-5.96,0.001 -11.92,0.025 -17.88,-0.017c-1.324,-0.009 -2.22,0.205 -3.148,1.431c-1.898,2.509 -4.186,4.722 -6.307,7.063c-4.349,4.799 -13.843,15.049 -13.843,15.049M398.201,75.63h66.383v-3.234h-66.383zM439.422,84.157h-41.181v3.233h41.181zM451.898,84.151h-3.266v3.245h3.266zM458.372,84.179h-3.232v3.189h3.232zM442.391,87.396h3.245v-3.266h-3.245z"></path><path d="M417.516,146.537l0.756,0.895c0,0 12.064,13.233 18.069,19.874c0.742,0.82 1.266,1.837 2.021,2.641c0.311,0.332 0.964,0.474 1.462,0.477c6.759,0.03 13.518,0.02 20.277,0.022c3.237,0.001 4.96,1.543 5.469,4.784c1.475,9.386 2.997,18.765 4.438,28.155c0.178,1.157 0.186,2.423 -0.089,3.549c-0.548,2.242 -2.348,3.168 -4.469,3.367c-4.973,0.466 -9.956,0.832 -14.935,1.236c-6.572,0.533 -13.144,1.066 -19.717,1.593c-5.418,0.434 -10.836,0.855 -16.254,1.289c-6.573,0.527 -13.145,1.062 -19.717,1.593c-2.191,0.177 -4.381,0.375 -6.574,0.518c-2.237,0.146 -4.315,-1.298 -4.868,-3.461c-0.145,-0.567 0.016,-1.264 0.194,-1.854c3.1,-10.315 6.209,-20.627 9.356,-30.927c0.733,-2.399 1.583,-4.764 2.438,-7.123c0.618,-1.703 2.156,-2.717 3.966,-2.719c5.599,-0.005 11.199,-0.023 16.797,0.017c1.068,0.008 1.439,-0.248 1.427,-1.412c-0.072,-7.077 -0.055,-21.232 -0.055,-21.232zM395.013,201.639h66.383v-3.234h-66.383zM461.434,186.649h-41.174v3.223h41.174zM414.016,189.868h3.214v-3.256h-3.214zM410.999,186.645h-3.233v3.266h3.233zM404.507,186.657h-3.209v3.251h3.209z"></path><path d="M333.504,170.007h-3.071c-6.16,0 -12.321,-0.016 -18.481,0.019c-0.839,0.004 -1.263,-0.218 -1.563,-1.042c-1.173,-3.225 -2.444,-6.414 -3.645,-9.629c-0.226,-0.607 -0.516,-0.855 -1.203,-0.853c-7.68,0.027 -15.361,0.027 -23.042,-0.001c-0.732,-0.002 -1.034,0.263 -1.278,0.917c-1.213,3.253 -2.457,6.495 -3.75,9.716c-0.147,0.368 -0.668,0.834 -1.018,0.836c-7.08,0.046 -14.161,0.03 -21.242,0.025c-0.076,0 -0.151,-0.035 -0.327,-0.079c0.123,-0.334 0.225,-0.664 0.362,-0.978c9.225,-21.147 18.457,-42.29 27.661,-63.445c0.316,-0.726 0.65,-1.012 1.474,-1.007c6.561,0.039 13.122,0.032 19.682,0.006c0.699,-0.003 1.048,0.204 1.333,0.857c9.253,21.264 18.528,42.52 27.797,63.777c0.108,0.248 0.182,0.51 0.311,0.881M294.135,126.552c-0.094,0.001 -0.189,0.001 -0.283,0.002c-2.054,5.326 -4.109,10.651 -6.201,16.074h12.686c-2.092,-5.423 -4.147,-10.749 -6.202,-16.076"></path><path d="M198.053,116.152c-4.665,4.164 -9.25,8.256 -13.71,12.238c-1.743,-1.559 -3.283,-3.213 -5.086,-4.501c-6.491,-4.634 -15.62,-3.84 -20.703,1.688c-2.005,2.18 -3.133,4.803 -3.662,7.684c-0.662,3.599 -0.518,7.175 0.708,10.641c2.47,6.987 8.559,10.013 15.18,9.676c5.014,-0.255 8.963,-2.608 12.229,-6.279c0.319,-0.358 0.63,-0.724 0.949,-1.082c0.051,-0.057 0.129,-0.092 0.274,-0.192c4.568,4.078 9.152,8.169 13.798,12.316c-1.823,2.529 -4.013,4.599 -6.479,6.379c-5.703,4.115 -12.155,6.055 -19.106,6.579c-7.179,0.541 -14.149,-0.316 -20.688,-3.406c-11.811,-5.583 -18.332,-14.965 -19.302,-28.001c-0.809,-10.861 2.535,-20.259 10.685,-27.693c5.193,-4.738 11.418,-7.415 18.309,-8.521c8.343,-1.338 16.496,-0.659 24.298,2.768c4.879,2.144 8.966,5.342 12.306,9.706"></path><path d="M55.21,169.914v-48.339h-19.009v-17.006h60.125v16.952h-19.007v48.393z"></path><path d="M259.339,104.572v16.94h-19.038v48.398h-22.109v-48.329h-19.013v-17.009z"></path><path d="M388.526,152.909v17h-51.445v-65.32h21.91v48.32z"></path><rect x="102.373" y="104.558" width="21.852" height="65.358"></rect><path d="M461.834,161.045c-6.635,-8.519 -13.271,-17.038 -19.954,-25.618c5.224,-6.483 10.405,-12.911 15.586,-19.34c0.056,0.03 0.113,0.059 0.17,0.089c-1.132,3.306 -2.07,6.695 -3.448,9.894c-1.456,3.38 -1.411,6.466 -0.175,9.961c2.764,7.815 5.102,15.782 7.613,23.687c0.13,0.41 0.249,0.822 0.373,1.234c-0.055,0.031 -0.11,0.062 -0.165,0.093"></path><path d="M389.985,98.705c-2.773,-7.752 -5.974,-17.51 -8.512,-25.393c-0.84,-2.671 -2.011,-6.109 -2.671,-8.404c-2.389,-6.44 6.816,-8.081 11.136,-9.256c5.094,-1.348 10.193,-2.671 15.312,-3.904c-5.02,1.606 -10.061,3.12 -15.107,4.611c-2.178,0.7 -5.404,1.433 -7.394,2.488c-2.106,0.961 -4.269,3.197 -3.102,5.567c0.964,2.851 1.797,5.75 2.708,8.619c2.461,7.919 5.434,17.719 7.63,25.672"></path><path d="M468.938,172.455c1.458,8.103 3.008,18.255 4.212,26.448c0.389,2.773 0.978,6.358 1.251,8.729c1.295,6.746 -8.054,6.848 -12.509,7.295c-5.246,0.491 -10.494,0.956 -15.746,1.328c5.216,-0.756 10.437,-1.42 15.66,-2.058c2.264,-0.332 5.566,-0.524 7.703,-1.236c2.236,-0.602 4.738,-2.451 3.977,-4.981c-0.481,-2.97 -0.825,-5.967 -1.252,-8.947c-1.123,-8.216 -2.44,-18.372 -3.296,-26.578"></path><path d="M40.7,189.627h-3.317v-1.572h8.493v1.572h-3.317v8.436h-1.859z"></path><path d="M54.783,196.504v1.559h-7.506v-10.008h7.306v1.557h-5.447v2.603h4.832v1.53h-4.832v2.759z"></path><path d="M56.098,193.059c0,-2.988 2.288,-5.147 5.362,-5.147c1.63,0 3.031,0.585 3.96,1.672l-1.201,1.13c-0.729,-0.787 -1.63,-1.173 -2.673,-1.173c-2.073,0 -3.575,1.459 -3.575,3.518c0,2.059 1.502,3.517 3.575,3.517c1.043,0 1.944,-0.386 2.673,-1.187l1.201,1.144c-0.929,1.087 -2.33,1.672 -3.974,1.672c-3.06,0 -5.348,-2.158 -5.348,-5.146"></path><path d="M76.101,188.055v10.008h-1.531l-5.518,-6.778v6.778h-1.845v-10.008h1.53l5.52,6.776v-6.776z"></path><path d="M78.073,193.059c0,-2.96 2.288,-5.147 5.39,-5.147c3.103,0 5.391,2.173 5.391,5.147c0,2.974 -2.288,5.146 -5.391,5.146c-3.102,0 -5.39,-2.187 -5.39,-5.146M86.981,193.059c0,-2.045 -1.501,-3.518 -3.518,-3.518c-2.015,0 -3.517,1.473 -3.517,3.518c0,2.044 1.502,3.517 3.517,3.517c2.017,0 3.518,-1.473 3.518,-3.517"></path><path d="M90.827,188.055h1.859v8.436h5.233v1.572h-7.092z"></path><path d="M98.49,193.059c0,-2.96 2.288,-5.147 5.39,-5.147c3.103,0 5.391,2.173 5.391,5.147c0,2.974 -2.288,5.146 -5.391,5.146c-3.102,0 -5.39,-2.187 -5.39,-5.146M107.398,193.059c0,-2.045 -1.501,-3.518 -3.518,-3.518c-2.015,0 -3.517,1.473 -3.517,3.518c0,2.044 1.502,3.517 3.517,3.517c2.017,0 3.518,-1.473 3.518,-3.517"></path><path d="M118.078,192.944h1.758v3.988c-1.043,0.844 -2.502,1.273 -3.917,1.273c-3.103,0 -5.39,-2.158 -5.39,-5.147c0,-2.988 2.287,-5.147 5.419,-5.147c1.672,0 3.073,0.557 4.017,1.63l-1.172,1.143c-0.787,-0.786 -1.687,-1.143 -2.759,-1.143c-2.131,0 -3.632,1.444 -3.632,3.517c0,2.031 1.501,3.517 3.617,3.517c0.715,0 1.415,-0.143 2.059,-0.515z"></path><rect x="122.282" y="188.055" width="1.859" height="10.008"></rect><path d="M133.334,195.746h-5.004l-0.987,2.316h-1.916l4.504,-10.007h1.83l4.518,10.007h-1.944zM132.719,194.288l-1.887,-4.375l-1.873,4.375z"></path><path d="M147.989,195.746h-5.004l-0.987,2.316h-1.916l4.504,-10.007h1.83l4.518,10.007h-1.944zM147.374,194.288l-1.887,-4.375l-1.873,4.375z"></path><path d="M160.584,191.614c0,2.202 -1.63,3.561 -4.261,3.561h-2.258v2.887h-1.859v-10.008h4.117c2.631,0 4.261,1.344 4.261,3.56M158.711,191.614c0,-1.258 -0.843,-1.987 -2.473,-1.987h-2.173v3.974h2.173c1.63,0 2.473,-0.729 2.473,-1.987"></path><path d="M162.443,188.055h1.859v8.436h5.233v1.572h-7.092z"></path><rect x="171.007" y="188.055" width="1.859" height="10.008"></rect><path d="M174.853,193.059c0,-2.988 2.288,-5.147 5.362,-5.147c1.63,0 3.031,0.585 3.96,1.672l-1.201,1.13c-0.729,-0.787 -1.63,-1.173 -2.673,-1.173c-2.073,0 -3.575,1.459 -3.575,3.518c0,2.059 1.502,3.517 3.575,3.517c1.043,0 1.944,-0.386 2.673,-1.187l1.201,1.144c-0.929,1.087 -2.33,1.672 -3.974,1.672c-3.06,0 -5.348,-2.158 -5.348,-5.146"></path><path d="M192.239,195.746h-5.004l-0.987,2.316h-1.916l4.504,-10.007h1.83l4.518,10.007h-1.944zM191.624,194.288l-1.887,-4.375l-1.873,4.375z"></path><path d="M196.456,188.054h4.376c3.245,0 5.461,2.001 5.461,5.004c0,3.002 -2.216,5.004 -5.461,5.004h-4.376zM200.747,196.49c2.23,0 3.674,-1.358 3.674,-3.432c0,-2.073 -1.444,-3.431 -3.674,-3.431h-2.431v6.863z"></path><path d="M214.615,195.746h-5.004l-0.987,2.316h-1.916l4.504,-10.007h1.83l4.518,10.007h-1.944zM214,194.288l-1.887,-4.375l-1.873,4.375z"></path><path d="M229.27,195.746h-5.004l-0.987,2.316h-1.916l4.504,-10.007h1.83l4.518,10.007h-1.944zM226.439,187.239l-2.488,-1.959h2.102l1.93,1.959zM228.655,194.288l-1.887,-4.375l-1.873,4.375z"></path><path d="M37.826,214.162l0.644,-1.444c0.8,0.643 2.072,1.1 3.302,1.1c1.558,0 2.216,-0.557 2.216,-1.301c0,-2.159 -5.948,-0.743 -5.948,-4.46c0,-1.616 1.287,-2.989 4.032,-2.989c1.201,0 2.46,0.315 3.332,0.887l-0.587,1.444c-0.9,-0.529 -1.887,-0.787 -2.759,-0.787c-1.544,0 -2.173,0.601 -2.173,1.359c0,2.13 5.933,0.744 5.933,4.418c0,1.601 -1.301,2.973 -4.046,2.973c-1.558,0 -3.117,-0.485 -3.946,-1.2"></path><path d="M55.169,213.661v1.559h-7.506v-10.008h7.306v1.557h-5.447v2.603h4.832v1.53h-4.832v2.759z"></path><path d="M64.034,210.102h1.758v3.988c-1.043,0.844 -2.502,1.273 -3.917,1.273c-3.103,0 -5.39,-2.158 -5.39,-5.147c0,-2.988 2.287,-5.147 5.419,-5.147c1.672,0 3.073,0.557 4.017,1.63l-1.172,1.143c-0.787,-0.786 -1.687,-1.143 -2.759,-1.143c-2.131,0 -3.632,1.444 -3.632,3.517c0,2.031 1.501,3.517 3.617,3.517c0.715,0 1.415,-0.143 2.059,-0.515z"></path><path d="M68.152,210.859v-5.647h1.858v5.575c0,2.059 0.93,2.945 2.545,2.945c1.616,0 2.531,-0.886 2.531,-2.945v-5.575h1.83v5.647c0,2.916 -1.644,4.503 -4.375,4.503c-2.745,0 -4.389,-1.587 -4.389,-4.503"></path><path d="M86.066,215.22l-2.044,-2.931c-0.129,0.014 -0.258,0.014 -0.387,0.014h-2.258v2.917h-1.859v-10.008h4.117c2.631,0 4.261,1.343 4.261,3.559c0,1.516 -0.772,2.631 -2.13,3.16l2.302,3.289zM83.55,206.784h-2.173v3.989h2.173c1.63,0 2.473,-0.744 2.473,-2.002c0,-1.258 -0.843,-1.987 -2.473,-1.987"></path><path d="M96.461,212.903h-5.004l-0.987,2.316h-1.916l4.504,-10.007h1.83l4.518,10.007h-1.944zM95.846,211.445l-1.887,-4.375l-1.873,4.375z"></path><path d="M109.571,205.212v10.008h-1.53l-5.518,-6.778v6.778h-1.845v-10.008h1.53l5.519,6.776v-6.776z"></path><path d="M119.665,212.546l1.201,1.144c-0.901,1.044 -2.23,1.629 -3.803,1.672l-0.143,0.558c0.844,0.101 1.244,0.587 1.244,1.201c0,0.829 -0.772,1.359 -1.945,1.359c-0.514,0 -0.957,-0.1 -1.315,-0.3l0.329,-0.844c0.3,0.157 0.615,0.229 0.972,0.229c0.529,0 0.758,-0.201 0.758,-0.515c0,-0.272 -0.215,-0.472 -0.758,-0.472h-0.443l0.329,-1.259c-2.645,-0.342 -4.547,-2.387 -4.547,-5.103c0,-2.988 2.288,-5.148 5.362,-5.148c1.63,0 3.03,0.586 3.96,1.673l-1.201,1.13c-0.729,-0.787 -1.63,-1.173 -2.673,-1.173c-2.074,0 -3.575,1.459 -3.575,3.518c0,2.059 1.501,3.517 3.575,3.517c1.043,0 1.944,-0.386 2.673,-1.187"></path><path d="M128.93,212.903h-5.004l-0.987,2.316h-1.916l4.504,-10.007h1.83l4.518,10.007h-1.944zM128.315,211.445l-1.887,-4.375l-1.873,4.375z"></path><path d="M145.472,208.771c0,2.202 -1.63,3.561 -4.261,3.561h-2.258v2.887h-1.859v-10.008h4.117c2.631,0.001 4.261,1.344 4.261,3.56M143.599,208.771c0,-1.258 -0.843,-1.987 -2.473,-1.987h-2.173v3.974h2.173c1.63,0 2.473,-0.728 2.473,-1.987"></path><path d="M147.245,210.859v-5.648h1.859v5.576c0,2.059 0.929,2.945 2.545,2.945c1.615,0 2.53,-0.886 2.53,-2.945v-5.576h1.83v5.648c0,2.916 -1.644,4.503 -4.375,4.503c-2.745,0.001 -4.389,-1.587 -4.389,-4.503M152.378,202.438h2.102l-2.488,1.959h-1.544z"></path><path d="M167.505,212.503c0,1.715 -1.344,2.716 -3.918,2.716h-4.976v-10.007h4.69c2.402,0 3.689,1.014 3.689,2.601c0,1.029 -0.515,1.787 -1.287,2.202c1.073,0.343 1.802,1.187 1.802,2.488M160.47,206.67v2.759h2.631c1.287,0 2.016,-0.458 2.016,-1.373c0,-0.929 -0.729,-1.386 -2.016,-1.386zM165.632,212.317c0,-1.001 -0.758,-1.444 -2.159,-1.444h-3.003v2.888h3.003c1.401,0 2.159,-0.443 2.159,-1.444"></path><path d="M169.492,205.212h1.859v8.436h5.233v1.572h-7.092z"></path><rect x="178.056" y="205.212" width="1.859" height="10.008"></rect><path d="M181.902,210.216c0,-2.988 2.288,-5.147 5.362,-5.147c1.63,0 3.031,0.585 3.96,1.672l-1.201,1.13c-0.729,-0.787 -1.63,-1.173 -2.673,-1.173c-2.073,0 -3.575,1.459 -3.575,3.518c0,2.059 1.502,3.517 3.575,3.517c1.043,0 1.944,-0.386 2.673,-1.187l1.201,1.144c-0.929,1.087 -2.33,1.672 -3.974,1.672c-3.06,0 -5.348,-2.158 -5.348,-5.146"></path><path d="M199.288,212.903h-5.004l-0.987,2.316h-1.916l4.504,-10.007h1.83l4.518,10.007h-1.944zM198.673,211.445l-1.887,-4.375l-1.873,4.375z"></path><rect x="384.743" y="112.758" width="3.783" height="30.391"></rect></g></g></g></svg>